# xmcd CD database file
#
# Track frame offsets:
#	150
#	13840
#	37673
#	59686
#	78801
#	97343
#	117566
#	136323
#	149813
#	167146
#	185224
#
# Disc length: 2724 seconds
#
# Revision: 1
# Processed by: cddbd v1.5.2PL0 Copyright (c) Steve Scherf et al.
# Submitted via: CDex 1.51
#
DISCID=a50aa20b
DTITLE=Kenny Wayne Shepherd Band - Lay It On Down
DYEAR=2017
DGENRE=Blues
TTITLE0=Baby Got Gone
TTITLE1=Diamonds and Gold
TTITLE2=Nothing But The Night
TTITLE3=Lay It On Down
TTITLE4=She's $$$
TTITLE5=Hard Lesson Learned
TTITLE6=Down For Love
TTITLE7=How Long Can You Go
TTITLE8=Louisiana Rain
TTITLE9=Ride Of Your Live
TTITLE10=Lay It On Down (Acoustic)
EXTD=YEAR: 2017
EXTT0=
EXTT1=
EXTT2=
EXTT3=
EXTT4=
EXTT5=
EXTT6=
EXTT7=
EXTT8=
EXTT9=
EXTT10=
PLAYORDER=
